<svg width="512" height="512" viewBox="0 0 512 512" fill="none" xmlns="http://www.w3.org/2000/svg">
  <rect width="512" height="512" rx="96" fill="#0F766E"/>
  <path d="M79 266C122 196 201 153 292 153C359 153 418 176 454 213C415 198 359 190 295 195C201 203 121 230 79 266Z" fill="#F8FAFC"/>
  <path d="M62 300C112 251 204 221 307 213C374 208 431 214 471 230C440 304 357 359 257 359C175 359 103 336 62 300Z" fill="#A7F3D0"/>
  <path d="M147 289C189 270 247 257 311 252C354 249 393 251 424 258C386 286 328 307 262 314C214 319 173 310 147 289Z" fill="#134E4A"/>
</svg>
